<svg width="23" height="24" viewBox="0 0 23 24" fill="none" xmlns="http://www.w3.org/2000/svg">
<path fill-rule="evenodd" clip-rule="evenodd" d="M5.86745 0H16.1481C19.8921 0 22.0057 2.2249 22.0167 6.14759V16.9203C22.0167 20.8418 19.8921 23.0679 16.1481 23.0679H5.86745C2.12351 23.0679 0 20.8418 0 16.9203V6.14759C0 2.2249 2.12351 0 5.86745 0ZM11.0623 18.2928C11.5367 18.2928 11.9319 17.9237 11.976 17.4278V5.67469C12.02 5.31713 11.856 4.95843 11.5587 4.76351C11.2494 4.56743 10.8751 4.56743 10.579 4.76351C10.2807 4.95843 10.1167 5.31713 10.1486 5.67469V17.4278C10.2047 17.9237 10.5999 18.2928 11.0623 18.2928ZM16.1272 18.2929C16.5896 18.2929 16.9848 17.9238 17.0409 17.4278V13.6447C17.0728 13.2744 16.9088 12.9296 16.6105 12.7335C16.3144 12.5374 15.9401 12.5374 15.6318 12.7335C15.3335 12.9296 15.1695 13.2744 15.2135 13.6447V17.4278C15.2575 17.9238 15.6527 18.2929 16.1272 18.2929ZM6.84608 17.4278C6.80205 17.9238 6.40685 18.2929 5.93239 18.2929C5.45903 18.2929 5.06273 17.9238 5.0198 17.4278V9.45786C4.98677 9.09916 5.1508 8.74276 5.44912 8.54668C5.74525 8.35061 6.12063 8.35061 6.41786 8.54668C6.71398 8.74276 6.88021 9.09916 6.84608 9.45786V17.4278Z" fill="#FEAD86"/>
</svg>
