<svg width="47" height="47" viewBox="0 0 47 47" fill="none" xmlns="http://www.w3.org/2000/svg">
<rect width="47" height="47" rx="15" fill="#E7F2EF"/>
<path fill-rule="evenodd" clip-rule="evenodd" d="M33.1995 20.2191L33.9903 21.0473C34.6163 21.6914 34.9567 22.5656 34.9567 23.4858C34.9677 24.4061 34.6272 25.2814 34.0122 25.9359C34.0084 25.9403 34.0046 25.9444 34.0008 25.9484C33.9936 25.9559 33.9864 25.9629 33.9793 25.9704L33.1995 26.7871C32.892 27.1092 32.7163 27.5463 32.7163 28.0075V29.1912C32.7163 31.1006 31.2337 32.6546 29.4106 32.6546H28.2794C27.8401 32.6546 27.4227 32.8375 27.1152 33.1596L26.3245 33.9878C25.6765 34.6676 24.8309 35 23.9852 35C23.1396 35 22.2939 34.6676 21.646 34.0004L20.8442 33.1596C20.5367 32.8375 20.1194 32.6546 19.6801 32.6546H18.5489C16.7258 32.6546 15.2432 31.1006 15.2432 29.1912V28.0075C15.2432 27.5463 15.0675 27.1092 14.76 26.7756L13.9692 25.9589C12.6843 24.6142 12.6733 22.4161 13.9582 21.0599L14.76 20.2191C15.0675 19.897 15.2432 19.4599 15.2432 18.9883V17.815C15.2432 15.9056 16.7258 14.3539 18.5489 14.3539H19.6801C20.1194 14.3539 20.5367 14.1687 20.8442 13.8466L21.635 13.0184C22.9199 11.6623 25.0176 11.6623 26.3135 13.0081L27.1152 13.8466C27.4227 14.1687 27.8401 14.3539 28.2794 14.3539H29.4106C31.2337 14.3539 32.7163 15.9056 32.7163 17.815V19.001C32.7163 19.4599 32.892 19.897 33.1995 20.2191ZM21.1518 27.4659C21.4154 27.4659 21.657 27.3623 21.8327 27.1668L27.4777 21.2556C27.8511 20.8645 27.8511 20.2192 27.4777 19.8281C27.1043 19.4382 26.5003 19.4382 26.1269 19.8281L20.4819 25.7405C20.1085 26.1316 20.1085 26.7757 20.4819 27.1668C20.6576 27.3623 20.8992 27.4659 21.1518 27.4659ZM25.8411 26.4531C25.8411 27.0168 26.2694 27.4654 26.8076 27.4654C27.3347 27.4654 27.763 27.0168 27.763 26.4531C27.763 25.9022 27.3347 25.4524 26.8076 25.4524C26.2694 25.4524 25.8411 25.9022 25.8411 26.4531ZM21.1627 19.5407C21.6898 19.5407 22.1181 19.9893 22.1181 20.5414C22.1181 21.1062 21.6898 21.5537 21.1627 21.5537C20.6355 21.5537 20.1962 21.1062 20.1962 20.5414C20.1962 19.9893 20.6355 19.5407 21.1627 19.5407Z" fill="#51A690"/>
</svg>
