<svg width="47" height="47" viewBox="0 0 47 47" fill="none" xmlns="http://www.w3.org/2000/svg">
<rect width="47" height="47" rx="15" fill="#CEEDFF"/>
<path fill-rule="evenodd" clip-rule="evenodd" d="M19.81 14H28.191C31.28 14 33 15.78 33 18.83V29.16C33 32.26 31.28 34 28.191 34H19.81C16.77 34 15 32.26 15 29.16V18.83C15 15.78 16.77 14 19.81 14ZM20.0799 18.6601V18.6501H23.0689C23.4999 18.6501 23.8499 19.0001 23.8499 19.4291C23.8499 19.8701 23.4999 20.2201 23.0689 20.2201H20.0799C19.6489 20.2201 19.2999 19.8701 19.2999 19.4401C19.2999 19.0101 19.6489 18.6601 20.0799 18.6601ZM20.0799 24.7401H27.9199C28.3499 24.7401 28.6999 24.3901 28.6999 23.9601C28.6999 23.5301 28.3499 23.1791 27.9199 23.1791H20.0799C19.6489 23.1791 19.2999 23.5301 19.2999 23.9601C19.2999 24.3901 19.6489 24.7401 20.0799 24.7401ZM20.08 29.31H27.92C28.319 29.27 28.62 28.929 28.62 28.53C28.62 28.12 28.319 27.78 27.92 27.74H20.08C19.78 27.71 19.49 27.85 19.33 28.11C19.17 28.36 19.17 28.69 19.33 28.95C19.49 29.2 19.78 29.35 20.08 29.31Z" fill="#4DBCFE"/>
</svg>
