<svg width="47" height="47" viewBox="0 0 47 47" fill="none" xmlns="http://www.w3.org/2000/svg">
<rect width="47" height="47" rx="15" fill="#DAE6FF"/>
<path fill-rule="evenodd" clip-rule="evenodd" d="M14 22.6699C14 17.8817 17.8403 14 22.5776 14C24.8526 14 27.0343 14.9134 28.6429 16.5394C30.2516 18.1653 31.1553 20.3705 31.1553 22.6699C31.1553 27.4582 27.3149 31.3399 22.5776 31.3399C17.8403 31.3399 14 27.4582 14 22.6699ZM31.0134 29.6543L33.568 31.7164H33.6124C34.1292 32.2388 34.1292 33.0858 33.6124 33.6082C33.0955 34.1306 32.2576 34.1306 31.7407 33.6082L29.6207 31.1784C29.4203 30.9766 29.3076 30.7023 29.3076 30.4164C29.3076 30.1304 29.4203 29.8561 29.6207 29.6543C30.0072 29.2704 30.6268 29.2704 31.0134 29.6543Z" fill="#6E9CFD"/>
</svg>
