<svg width="47" height="47" viewBox="0 0 47 47" fill="none" xmlns="http://www.w3.org/2000/svg">
<rect width="47" height="47" rx="15" fill="#C0F2EF"/>
<path fill-rule="evenodd" clip-rule="evenodd" d="M13.2017 22.3065C13.2017 16.7837 17.4292 12.3066 22.6442 12.3066C25.1485 12.3066 27.5503 13.3602 29.3211 15.2355C31.0919 17.1109 32.0868 19.6544 32.0868 22.3065C32.0868 27.8292 27.8592 32.3063 22.6442 32.3063C17.4292 32.3063 13.2017 27.8292 13.2017 22.3065ZM31.9305 30.3622L34.7428 32.7406H34.7916C35.3606 33.3432 35.3606 34.3201 34.7916 34.9226C34.2227 35.5251 33.3002 35.5251 32.7313 34.9226L30.3975 32.1202C30.1768 31.8873 30.0528 31.571 30.0528 31.2412C30.0528 30.9113 30.1768 30.595 30.3975 30.3622C30.823 29.9194 31.505 29.9194 31.9305 30.3622Z" fill="#00A198"/>
</svg>
