<svg width="47" height="47" viewBox="0 0 47 47" fill="none" xmlns="http://www.w3.org/2000/svg">
<rect width="47" height="47" rx="15" fill="#FFE7DB"/>
<path fill-rule="evenodd" clip-rule="evenodd" d="M18.8674 12H29.1481C32.8921 12 35.0057 14.2249 35.0167 18.1476V28.9203C35.0167 32.8418 32.8921 35.0679 29.1481 35.0679H18.8674C15.1235 35.0679 13 32.8418 13 28.9203V18.1476C13 14.2249 15.1235 12 18.8674 12ZM24.0623 30.2928C24.5367 30.2928 24.9319 29.9237 24.976 29.4278V17.6747C25.02 17.3171 24.856 16.9584 24.5587 16.7635C24.2494 16.5674 23.8751 16.5674 23.579 16.7635C23.2807 16.9584 23.1167 17.3171 23.1486 17.6747V29.4278C23.2047 29.9237 23.5999 30.2928 24.0623 30.2928ZM29.1272 30.2929C29.5896 30.2929 29.9848 29.9238 30.0409 29.4278V25.6447C30.0728 25.2744 29.9088 24.9296 29.6105 24.7335C29.3144 24.5374 28.9401 24.5374 28.6318 24.7335C28.3335 24.9296 28.1695 25.2744 28.2135 25.6447V29.4278C28.2575 29.9238 28.6527 30.2929 29.1272 30.2929ZM19.8461 29.4278C19.802 29.9238 19.4068 30.2929 18.9324 30.2929C18.459 30.2929 18.0627 29.9238 18.0198 29.4278V21.4579C17.9868 21.0992 18.1508 20.7428 18.4491 20.5467C18.7452 20.3506 19.1206 20.3506 19.4179 20.5467C19.714 20.7428 19.8802 21.0992 19.8461 21.4579V29.4278Z" fill="#FEAD86"/>
</svg>
