<svg width="47" height="47" viewBox="0 0 47 47" fill="none" xmlns="http://www.w3.org/2000/svg">
<rect width="47" height="47" rx="15" fill="#D8F0FA"/>
<path fill-rule="evenodd" clip-rule="evenodd" d="M29.3218 17.1557H29.5473C32.5107 17.1557 34.9159 19.7508 34.9159 22.9342V29.3009C34.9159 32.4843 32.5107 35.0679 29.5473 35.0679H19.3685C16.4051 35.0679 14 32.4843 14 29.3009V22.9342C14 19.7508 16.4051 17.1557 19.3685 17.1557H19.594C19.6155 15.7716 20.1201 14.4798 21.0328 13.5109C21.9562 12.5306 23.1373 12.0346 24.4687 12C27.1315 12 29.2896 14.3068 29.3218 17.1557ZM22.1602 14.7451C21.5589 15.391 21.226 16.2445 21.2046 17.1557H27.7112C27.679 15.2641 26.2402 13.7301 24.4686 13.7301C23.6419 13.7301 22.7829 14.0876 22.1602 14.7451ZM28.538 21.5963C28.9889 21.5963 29.3433 21.2041 29.3433 20.7312V19.3933C29.3433 18.9204 28.9889 18.5282 28.538 18.5282C28.0978 18.5282 27.7327 18.9204 27.7327 19.3933V20.7312C27.7327 21.2041 28.0978 21.5963 28.538 21.5963ZM21.0864 20.7312C21.0864 21.2041 20.7321 21.5963 20.2812 21.5963C19.8409 21.5963 19.4759 21.2041 19.4759 20.7312V19.3933C19.4759 18.9204 19.8409 18.5282 20.2812 18.5282C20.7321 18.5282 21.0864 18.9204 21.0864 19.3933V20.7312Z" fill="#0985B9"/>
</svg>
