<svg width="47" height="47" viewBox="0 0 47 47" fill="none" xmlns="http://www.w3.org/2000/svg">
<rect width="47" height="47" rx="15" fill="#FAF3D8"/>
<path fill-rule="evenodd" clip-rule="evenodd" d="M28.6868 19.8821C28.6868 22.5923 26.6247 24.7653 24.0531 24.7653C21.4814 24.7653 19.4193 22.5923 19.4193 19.8821C19.4193 17.171 21.4814 15 24.0531 15C26.6247 15 28.6868 17.171 28.6868 19.8821ZM24.053 33.4543C20.2759 33.4543 17.0507 32.8269 17.0507 30.3173C17.0507 27.8066 20.2552 27.1563 24.053 27.1563C27.8302 27.1563 31.0554 27.7837 31.0554 30.2944C31.0554 32.804 27.8509 33.4543 24.053 33.4543ZM30.667 19.9703C30.667 21.3518 30.2737 22.6388 29.5837 23.7087C29.5127 23.8188 29.5758 23.9674 29.701 23.9902C29.8735 24.0214 30.0519 24.0391 30.2333 24.0443C32.042 24.0941 33.6655 22.8673 34.1139 21.0204C34.7783 18.2771 32.8276 15.8142 30.3437 15.8142C30.0736 15.8142 29.8153 15.8443 29.564 15.8983C29.5295 15.9067 29.493 15.9233 29.4733 15.9555C29.4497 15.9949 29.4674 16.0479 29.4911 16.0822C30.2372 17.1843 30.667 18.5285 30.667 19.9703ZM33.6625 25.9717C34.8778 26.2221 35.6772 26.7331 36.0084 27.4758C36.2884 28.0856 36.2884 28.793 36.0084 29.4017C35.5018 30.5537 33.8685 30.9235 33.2337 31.019C33.1026 31.0398 32.9971 30.9203 33.0109 30.7822C33.3352 27.5901 30.7557 26.0766 30.0884 25.7287C30.0598 25.7131 30.0539 25.6892 30.0568 25.6746C30.0588 25.6643 30.0706 25.6476 30.0923 25.6445C31.5363 25.6165 33.0888 25.8242 33.6625 25.9717ZM17.9854 24.0441C18.1667 24.0389 18.3442 24.0223 18.5176 23.9901C18.6428 23.9672 18.7059 23.8187 18.6349 23.7086C17.945 22.6386 17.5517 21.3516 17.5517 19.9701C17.5517 18.5283 17.9814 17.1841 18.7276 16.082C18.7513 16.0478 18.768 15.9948 18.7453 15.9553C18.7256 15.9241 18.6882 15.9065 18.6547 15.8982C18.4023 15.8442 18.1441 15.814 17.874 15.814C15.3901 15.814 13.4394 18.2769 14.1047 21.0203C14.5532 22.8672 16.1766 24.0939 17.9854 24.0441ZM18.1613 25.674C18.1643 25.6896 18.1583 25.7125 18.1307 25.7291C17.4624 26.0771 14.8829 27.5905 15.2072 30.7816C15.221 30.9208 15.1165 31.0392 14.9854 31.0195C14.3506 30.9239 12.7173 30.5541 12.2107 29.4021C11.9298 28.7924 11.9298 28.086 12.2107 27.4763C12.5419 26.7336 13.3403 26.2225 14.5556 25.9711C15.1303 25.8247 16.6818 25.6169 18.1268 25.645C18.1485 25.6481 18.1593 25.6647 18.1613 25.674Z" fill="#FFCF00"/>
</svg>
