<svg width="47" height="47" viewBox="0 0 47 47" fill="none" xmlns="http://www.w3.org/2000/svg">
<rect width="47" height="47" rx="15" fill="#EDE7F2"/>
<path fill-rule="evenodd" clip-rule="evenodd" d="M24.3677 12.2418C24.5435 12.0765 24.776 11.9898 25.014 12.001C30.0457 12.1588 34.251 15.9859 35.0131 21.101C35.0179 21.1315 35.0179 21.1627 35.0131 21.1932C35.0295 21.4353 34.9514 21.674 34.7961 21.8567C34.6409 22.0394 34.4212 22.151 34.1857 22.1668L25.7318 22.7509C25.4522 22.7769 25.175 22.6805 24.9681 22.4854C24.7613 22.2903 24.644 22.0147 24.6452 21.7261L24.0769 13.0257V12.8823C24.0873 12.6376 24.1919 12.4072 24.3677 12.2418ZM23.7878 25.0259L31.1151 24.534L31.165 24.5545C31.4796 24.5599 31.7793 24.6936 31.998 24.9261C32.2168 25.1587 32.3367 25.4711 32.3314 25.7945C32.0426 30.2029 28.9579 33.8862 24.76 34.8352C20.562 35.7841 16.2587 33.7708 14.1975 29.8936C13.5914 28.7769 13.2084 27.5471 13.071 26.2762C13.0176 25.8996 12.9943 25.5191 13.0012 25.1386C13.0151 20.451 16.2004 16.4049 20.6575 15.4135C21.197 15.3077 21.738 15.5899 21.9734 16.1001C22.032 16.1927 22.0789 16.2925 22.113 16.3973C22.1965 17.7485 22.2832 19.087 22.3695 20.4198C22.4376 21.4724 22.5056 22.5216 22.5716 23.5707C22.5682 23.8179 22.6052 24.0638 22.6812 24.2983C22.8601 24.7597 23.3053 25.0524 23.7878 25.0259Z" fill="#75578E"/>
</svg>
